<svg
	width="24"
	height="24"
	viewBox="0 0 24 24"
	fill="none"
	xmlns="http://www.w3.org/2000/svg"
>
	<path
		d="M11.168 16V12.833H8.00098C7.54074 12.833 7.16797 12.4602 7.16797 12C7.16797 11.5398 7.54074 11.167 8.00098 11.167H11.168V8C11.168 7.53976 11.5407 7.16699 12.001 7.16699C12.4612 7.16699 12.834 7.53976 12.834 8V11.167H16.001C16.4612 11.167 16.834 11.5398 16.834 12C16.834 12.4602 16.4612 12.833 16.001 12.833H12.834V16C12.834 16.4602 12.4612 16.833 12.001 16.833C11.5407 16.833 11.168 16.4602 11.168 16Z"
		fill="#E6E6E6"
	/>
</svg>
